<?xml version="1.0" encoding="UTF-8"?>
<svg width="752pt" height="752pt" version="1.1" viewBox="0 0 752 752" xmlns="http://www.w3.org/2000/svg">
 <g>
  <path d="m327.9 342.7c0.03125 13.629 5.8398 26.605 15.984 35.703-12.285 3.4883-23.066 10.961-30.648 21.238-7.5781 10.281-11.531 22.785-11.234 35.555v3.6992c0 6.8711 2.7305 13.457 7.5859 18.312 4.8555 4.8594 11.445 7.5859 18.312 7.5859h96.195c6.8711 0 13.457-2.7266 18.316-7.5859 4.8555-4.8555 7.5859-11.441 7.5859-18.312v-3.6992c0.29688-12.77-3.6562-25.273-11.238-35.555-7.5781-10.277-18.359-17.75-30.645-21.238 12.137-10.887 17.934-27.18 15.398-43.285-2.5391-16.105-13.059-29.832-27.957-36.461-14.895-6.6328-32.133-5.2656-45.797 3.6328-13.664 8.8945-21.895 24.105-21.859 40.41zm62.898 48.098c11.855-0.26562 23.301 4.3281 31.688 12.711 8.3828 8.3867 12.977 19.832 12.711 31.688v3.6992c0 6.1289-4.9688 11.102-11.102 11.102h-96.195c-6.1289 0-11.098-4.9727-11.098-11.102v-3.6992c-0.26563-11.855 4.3242-23.301 12.711-31.688 8.3828-8.3828 19.832-12.977 31.688-12.711zm-14.801-81.398c8.832 0 17.301 3.5117 23.547 9.7539 6.2461 6.2461 9.7539 14.715 9.7539 23.547s-3.5078 17.301-9.7539 23.547c-6.2461 6.2422-14.715 9.75-23.547 9.75-8.8281 0-17.301-3.5078-23.543-9.75-6.2461-6.2461-9.7539-14.715-9.7539-23.547s3.5078-17.301 9.7539-23.547c6.2422-6.2422 14.715-9.7539 23.543-9.7539z"/>
  <path d="m524 278.32c-0.082032-0.3125-0.17969-0.62109-0.29688-0.92578v-0.44531c0-0.33203-0.33203-0.62891-0.51953-0.96094v0.003906c0.007812-0.10156 0.007812-0.19922 0-0.29688-0.26172-0.41797-0.57422-0.80078-0.92188-1.1484l-88.797-88.797c-0.34766-0.34766-0.73047-0.66016-1.1484-0.92188l-0.8125-0.14844-0.96094-0.51953h-0.44531l-0.81641-0.55469c-0.48828-0.054687-0.98438-0.054687-1.4766 0h-192.39c-4.0859 0-7.3984 3.3125-7.3984 7.3984v369.98c0 1.9648 0.77734 3.8477 2.168 5.2344 1.3867 1.3867 3.2695 2.168 5.2305 2.168h281.19c1.9609 0 3.8438-0.78125 5.2305-2.168 1.3867-1.3867 2.168-3.2695 2.168-5.2344v-281.19c0.054687-0.49219 0.054687-0.98828 0-1.4805zm-88.797-69.445 63.527 63.527h-63.527zm-192.39 344.71v-355.18h177.59v81.395c0 1.9648 0.78125 3.8438 2.168 5.2344 1.3867 1.3867 3.2695 2.1641 5.2344 2.1641h81.398v266.39z"/>
  <path d="m294.61 272.41h59.195c4.0898 0 7.4023-3.3125 7.4023-7.3984 0-4.0898-3.3125-7.4023-7.4023-7.4023h-59.195c-4.0859 0-7.4023 3.3125-7.4023 7.4023 0 4.0859 3.3164 7.3984 7.4023 7.3984z"/>
  <path d="m339 494.4h-44.398c-4.0859 0-7.4023 3.3125-7.4023 7.3984s3.3164 7.3984 7.4023 7.3984h44.398c4.0859 0 7.3984-3.3125 7.3984-7.3984s-3.3125-7.3984-7.3984-7.3984z"/>
  <path d="m457.4 494.4h-88.797c-4.0859 0-7.3984 3.3125-7.3984 7.3984s3.3125 7.3984 7.3984 7.3984h88.797c4.0859 0 7.3984-3.3125 7.3984-7.3984s-3.3125-7.3984-7.3984-7.3984z"/>
 </g>
</svg>
